G04 #@! TF.GenerationSoftware,KiCad,Pcbnew,(5.1.4)-1*
G04 #@! TF.CreationDate,2020-08-30T11:13:41+08:00*
G04 #@! TF.ProjectId,EHFW_ANT,45484657-5f41-44e5-942e-6b696361645f,rev?*
G04 #@! TF.SameCoordinates,Original*
G04 #@! TF.FileFunction,Soldermask,Top*
G04 #@! TF.FilePolarity,Negative*
%FSLAX46Y46*%
G04 Gerber Fmt 4.6, Leading zero omitted, Abs format (unit mm)*
G04 Created by KiCad (PCBNEW (5.1.4)-1) date 2020-08-30 11:13:41*
%MOMM*%
%LPD*%
G04 APERTURE LIST*
%ADD10C,0.100000*%
G04 APERTURE END LIST*
D10*
G36*
X132624549Y-77971116D02*
G01*
X132735734Y-77993232D01*
X132945203Y-78079997D01*
X133133720Y-78205960D01*
X133294040Y-78366280D01*
X133420003Y-78554797D01*
X133506768Y-78764266D01*
X133551000Y-78986636D01*
X133551000Y-79213364D01*
X133506768Y-79435734D01*
X133420003Y-79645203D01*
X133294040Y-79833720D01*
X133133720Y-79994040D01*
X132945203Y-80120003D01*
X132735734Y-80206768D01*
X132624549Y-80228884D01*
X132513365Y-80251000D01*
X132286635Y-80251000D01*
X132175451Y-80228884D01*
X132064266Y-80206768D01*
X131854797Y-80120003D01*
X131666280Y-79994040D01*
X131505960Y-79833720D01*
X131379997Y-79645203D01*
X131293232Y-79435734D01*
X131249000Y-79213364D01*
X131249000Y-78986636D01*
X131293232Y-78764266D01*
X131379997Y-78554797D01*
X131505960Y-78366280D01*
X131666280Y-78205960D01*
X131854797Y-78079997D01*
X132064266Y-77993232D01*
X132175451Y-77971116D01*
X132286635Y-77949000D01*
X132513365Y-77949000D01*
X132624549Y-77971116D01*
X132624549Y-77971116D01*
G37*
G36*
X141344098Y-73547033D02*
G01*
X141648632Y-73673175D01*
X141808352Y-73739333D01*
X142226168Y-74018509D01*
X142581491Y-74373832D01*
X142860667Y-74791648D01*
X142860668Y-74791650D01*
X143052967Y-75255902D01*
X143151000Y-75748747D01*
X143151000Y-76251253D01*
X143052967Y-76744098D01*
X142916919Y-77072548D01*
X142860667Y-77208352D01*
X142581491Y-77626168D01*
X142226168Y-77981491D01*
X141808352Y-78260667D01*
X141808351Y-78260668D01*
X141808350Y-78260668D01*
X141344098Y-78452967D01*
X140851253Y-78551000D01*
X140348747Y-78551000D01*
X139855902Y-78452967D01*
X139391650Y-78260668D01*
X139391649Y-78260668D01*
X139391648Y-78260667D01*
X138973832Y-77981491D01*
X138618509Y-77626168D01*
X138339333Y-77208352D01*
X138283081Y-77072548D01*
X138147033Y-76744098D01*
X138049000Y-76251253D01*
X138049000Y-75748747D01*
X138147033Y-75255902D01*
X138339332Y-74791650D01*
X138339333Y-74791648D01*
X138618509Y-74373832D01*
X138973832Y-74018509D01*
X139391648Y-73739333D01*
X139551368Y-73673175D01*
X139855902Y-73547033D01*
X140348747Y-73449000D01*
X140851253Y-73449000D01*
X141344098Y-73547033D01*
X141344098Y-73547033D01*
G37*
G36*
X119646669Y-74587686D02*
G01*
X119823058Y-74605059D01*
X120162548Y-74708042D01*
X120162550Y-74708043D01*
X120475422Y-74875277D01*
X120749661Y-75100339D01*
X120974723Y-75374578D01*
X121110896Y-75629339D01*
X121141958Y-75687452D01*
X121244941Y-76026942D01*
X121279714Y-76380000D01*
X121244941Y-76733058D01*
X121141958Y-77072548D01*
X121141957Y-77072550D01*
X120974723Y-77385422D01*
X120749661Y-77659661D01*
X120475422Y-77884723D01*
X120294382Y-77981491D01*
X120162548Y-78051958D01*
X119823058Y-78154941D01*
X119646669Y-78172314D01*
X119558476Y-78181000D01*
X115881524Y-78181000D01*
X115793331Y-78172314D01*
X115616942Y-78154941D01*
X115277452Y-78051958D01*
X115145618Y-77981491D01*
X114964578Y-77884723D01*
X114690339Y-77659661D01*
X114465277Y-77385422D01*
X114298043Y-77072550D01*
X114298042Y-77072548D01*
X114195059Y-76733058D01*
X114160286Y-76380000D01*
X114195059Y-76026942D01*
X114298042Y-75687452D01*
X114329104Y-75629339D01*
X114465277Y-75374578D01*
X114690339Y-75100339D01*
X114964578Y-74875277D01*
X115277450Y-74708043D01*
X115277452Y-74708042D01*
X115616942Y-74605059D01*
X115793331Y-74587686D01*
X115881524Y-74579000D01*
X119558476Y-74579000D01*
X119646669Y-74587686D01*
X119646669Y-74587686D01*
G37*
G36*
X157879487Y-73548996D02*
G01*
X158116253Y-73647068D01*
X158116255Y-73647069D01*
X158254338Y-73739333D01*
X158329339Y-73789447D01*
X158510553Y-73970661D01*
X158652932Y-74183747D01*
X158751004Y-74420513D01*
X158801000Y-74671861D01*
X158801000Y-74928139D01*
X158751004Y-75179487D01*
X158670195Y-75374577D01*
X158652931Y-75416255D01*
X158510553Y-75629339D01*
X158329339Y-75810553D01*
X158116255Y-75952931D01*
X158116254Y-75952932D01*
X158116253Y-75952932D01*
X157879487Y-76051004D01*
X157628139Y-76101000D01*
X157371861Y-76101000D01*
X157120513Y-76051004D01*
X156883747Y-75952932D01*
X156883746Y-75952932D01*
X156883745Y-75952931D01*
X156670661Y-75810553D01*
X156489447Y-75629339D01*
X156347069Y-75416255D01*
X156329805Y-75374577D01*
X156248996Y-75179487D01*
X156199000Y-74928139D01*
X156199000Y-74671861D01*
X156248996Y-74420513D01*
X156347068Y-74183747D01*
X156489447Y-73970661D01*
X156670661Y-73789447D01*
X156745662Y-73739333D01*
X156883745Y-73647069D01*
X156883747Y-73647068D01*
X157120513Y-73548996D01*
X157371861Y-73499000D01*
X157628139Y-73499000D01*
X157879487Y-73548996D01*
X157879487Y-73548996D01*
G37*
G36*
X123416823Y-73001313D02*
G01*
X123577242Y-73049976D01*
X123709906Y-73120886D01*
X123725078Y-73128996D01*
X123854659Y-73235341D01*
X123961004Y-73364922D01*
X123961005Y-73364924D01*
X124040024Y-73512758D01*
X124088687Y-73673177D01*
X124105117Y-73840000D01*
X124088687Y-74006823D01*
X124040024Y-74167242D01*
X123969114Y-74299906D01*
X123961004Y-74315078D01*
X123854659Y-74444659D01*
X123725078Y-74551004D01*
X123725076Y-74551005D01*
X123577242Y-74630024D01*
X123416823Y-74678687D01*
X123291804Y-74691000D01*
X122308196Y-74691000D01*
X122183177Y-74678687D01*
X122022758Y-74630024D01*
X121874924Y-74551005D01*
X121874922Y-74551004D01*
X121745341Y-74444659D01*
X121638996Y-74315078D01*
X121630886Y-74299906D01*
X121559976Y-74167242D01*
X121511313Y-74006823D01*
X121494883Y-73840000D01*
X121511313Y-73673177D01*
X121559976Y-73512758D01*
X121638995Y-73364924D01*
X121638996Y-73364922D01*
X121745341Y-73235341D01*
X121874922Y-73128996D01*
X121890094Y-73120886D01*
X122022758Y-73049976D01*
X122183177Y-73001313D01*
X122308196Y-72989000D01*
X123291804Y-72989000D01*
X123416823Y-73001313D01*
X123416823Y-73001313D01*
G37*
G36*
X123416823Y-70461313D02*
G01*
X123577242Y-70509976D01*
X123709906Y-70580886D01*
X123725078Y-70588996D01*
X123854659Y-70695341D01*
X123961004Y-70824922D01*
X123961005Y-70824924D01*
X124040024Y-70972758D01*
X124088687Y-71133177D01*
X124105117Y-71300000D01*
X124088687Y-71466823D01*
X124040024Y-71627242D01*
X123969114Y-71759906D01*
X123961004Y-71775078D01*
X123854659Y-71904659D01*
X123725078Y-72011004D01*
X123725076Y-72011005D01*
X123577242Y-72090024D01*
X123416823Y-72138687D01*
X123291804Y-72151000D01*
X122308196Y-72151000D01*
X122183177Y-72138687D01*
X122022758Y-72090024D01*
X121874924Y-72011005D01*
X121874922Y-72011004D01*
X121745341Y-71904659D01*
X121638996Y-71775078D01*
X121630886Y-71759906D01*
X121559976Y-71627242D01*
X121511313Y-71466823D01*
X121494883Y-71300000D01*
X121511313Y-71133177D01*
X121559976Y-70972758D01*
X121638995Y-70824924D01*
X121638996Y-70824922D01*
X121745341Y-70695341D01*
X121874922Y-70588996D01*
X121890094Y-70580886D01*
X122022758Y-70509976D01*
X122183177Y-70461313D01*
X122308196Y-70449000D01*
X123291804Y-70449000D01*
X123416823Y-70461313D01*
X123416823Y-70461313D01*
G37*
G36*
X149479487Y-67148996D02*
G01*
X149716253Y-67247068D01*
X149716255Y-67247069D01*
X149929339Y-67389447D01*
X150110553Y-67570661D01*
X150252932Y-67783747D01*
X150351004Y-68020513D01*
X150401000Y-68271861D01*
X150401000Y-68528139D01*
X150351004Y-68779487D01*
X150252932Y-69016253D01*
X150252931Y-69016255D01*
X150110553Y-69229339D01*
X149929339Y-69410553D01*
X149716255Y-69552931D01*
X149716254Y-69552932D01*
X149716253Y-69552932D01*
X149479487Y-69651004D01*
X149228139Y-69701000D01*
X148971861Y-69701000D01*
X148720513Y-69651004D01*
X148483747Y-69552932D01*
X148483746Y-69552932D01*
X148483745Y-69552931D01*
X148270661Y-69410553D01*
X148089447Y-69229339D01*
X147947069Y-69016255D01*
X147947068Y-69016253D01*
X147848996Y-68779487D01*
X147799000Y-68528139D01*
X147799000Y-68271861D01*
X147848996Y-68020513D01*
X147947068Y-67783747D01*
X148089447Y-67570661D01*
X148270661Y-67389447D01*
X148483745Y-67247069D01*
X148483747Y-67247068D01*
X148720513Y-67148996D01*
X148971861Y-67099000D01*
X149228139Y-67099000D01*
X149479487Y-67148996D01*
X149479487Y-67148996D01*
G37*
G36*
X119646669Y-64427686D02*
G01*
X119823058Y-64445059D01*
X120162548Y-64548042D01*
X120162550Y-64548043D01*
X120475422Y-64715277D01*
X120749661Y-64940339D01*
X120968314Y-65206768D01*
X120974722Y-65214577D01*
X121141958Y-65527452D01*
X121244941Y-65866942D01*
X121279714Y-66220000D01*
X121244941Y-66573058D01*
X121141958Y-66912548D01*
X121141957Y-66912550D01*
X120974723Y-67225422D01*
X120749661Y-67499661D01*
X120475422Y-67724723D01*
X120364996Y-67783747D01*
X120162548Y-67891958D01*
X119823058Y-67994941D01*
X119646669Y-68012314D01*
X119558476Y-68021000D01*
X115881524Y-68021000D01*
X115793331Y-68012314D01*
X115616942Y-67994941D01*
X115277452Y-67891958D01*
X115075004Y-67783747D01*
X114964578Y-67724723D01*
X114690339Y-67499661D01*
X114465277Y-67225422D01*
X114298043Y-66912550D01*
X114298042Y-66912548D01*
X114195059Y-66573058D01*
X114160286Y-66220000D01*
X114195059Y-65866942D01*
X114298042Y-65527452D01*
X114465278Y-65214577D01*
X114471687Y-65206768D01*
X114690339Y-64940339D01*
X114964578Y-64715277D01*
X115277450Y-64548043D01*
X115277452Y-64548042D01*
X115616942Y-64445059D01*
X115793331Y-64427686D01*
X115881524Y-64419000D01*
X119558476Y-64419000D01*
X119646669Y-64427686D01*
X119646669Y-64427686D01*
G37*
G36*
X132624549Y-62971116D02*
G01*
X132735734Y-62993232D01*
X132945203Y-63079997D01*
X133133720Y-63205960D01*
X133294040Y-63366280D01*
X133420003Y-63554797D01*
X133506768Y-63764266D01*
X133551000Y-63986636D01*
X133551000Y-64213364D01*
X133506768Y-64435734D01*
X133420003Y-64645203D01*
X133294040Y-64833720D01*
X133133720Y-64994040D01*
X132945203Y-65120003D01*
X132735734Y-65206768D01*
X132696475Y-65214577D01*
X132513365Y-65251000D01*
X132286635Y-65251000D01*
X132103525Y-65214577D01*
X132064266Y-65206768D01*
X131854797Y-65120003D01*
X131666280Y-64994040D01*
X131505960Y-64833720D01*
X131379997Y-64645203D01*
X131293232Y-64435734D01*
X131249000Y-64213364D01*
X131249000Y-63986636D01*
X131293232Y-63764266D01*
X131379997Y-63554797D01*
X131505960Y-63366280D01*
X131666280Y-63205960D01*
X131854797Y-63079997D01*
X132064266Y-62993232D01*
X132175451Y-62971116D01*
X132286635Y-62949000D01*
X132513365Y-62949000D01*
X132624549Y-62971116D01*
X132624549Y-62971116D01*
G37*
G36*
X125985401Y-45046053D02*
G01*
X126473322Y-45143107D01*
X127392546Y-45523862D01*
X128219825Y-46076632D01*
X128923368Y-46780175D01*
X129476138Y-47607454D01*
X129856893Y-48526678D01*
X130051000Y-49502520D01*
X130051000Y-50497480D01*
X129856893Y-51473322D01*
X129476138Y-52392546D01*
X128923368Y-53219825D01*
X128219825Y-53923368D01*
X127392546Y-54476138D01*
X126473322Y-54856893D01*
X125985401Y-54953947D01*
X125497481Y-55051000D01*
X124502519Y-55051000D01*
X124014599Y-54953947D01*
X123526678Y-54856893D01*
X122607454Y-54476138D01*
X121780175Y-53923368D01*
X121076632Y-53219825D01*
X120523862Y-52392546D01*
X120143107Y-51473322D01*
X119949000Y-50497480D01*
X119949000Y-49502520D01*
X120143107Y-48526678D01*
X120523862Y-47607454D01*
X121076632Y-46780175D01*
X121780175Y-46076632D01*
X122607454Y-45523862D01*
X123526678Y-45143107D01*
X124014599Y-45046053D01*
X124502519Y-44949000D01*
X125497481Y-44949000D01*
X125985401Y-45046053D01*
X125985401Y-45046053D01*
G37*
G36*
X155985401Y-45046053D02*
G01*
X156473322Y-45143107D01*
X157392546Y-45523862D01*
X158219825Y-46076632D01*
X158923368Y-46780175D01*
X159476138Y-47607454D01*
X159856893Y-48526678D01*
X160051000Y-49502520D01*
X160051000Y-50497480D01*
X159856893Y-51473322D01*
X159476138Y-52392546D01*
X158923368Y-53219825D01*
X158219825Y-53923368D01*
X157392546Y-54476138D01*
X156473322Y-54856893D01*
X155985401Y-54953947D01*
X155497481Y-55051000D01*
X154502519Y-55051000D01*
X154014599Y-54953947D01*
X153526678Y-54856893D01*
X152607454Y-54476138D01*
X151780175Y-53923368D01*
X151076632Y-53219825D01*
X150523862Y-52392546D01*
X150143107Y-51473322D01*
X149949000Y-50497480D01*
X149949000Y-49502520D01*
X150143107Y-48526678D01*
X150523862Y-47607454D01*
X151076632Y-46780175D01*
X151780175Y-46076632D01*
X152607454Y-45523862D01*
X153526678Y-45143107D01*
X154014599Y-45046053D01*
X154502519Y-44949000D01*
X155497481Y-44949000D01*
X155985401Y-45046053D01*
X155985401Y-45046053D01*
G37*
M02*
